<?xml version="1.0" encoding="UTF-8" standalone="no"?>
<svg
   xmlns:dc="http://purl.org/dc/elements/1.1/"
   xmlns:cc="http://creativecommons.org/ns#"
   xmlns:rdf="http://www.w3.org/1999/02/22-rdf-syntax-ns#"
   xmlns:svg="http://www.w3.org/2000/svg"
   xmlns="http://www.w3.org/2000/svg"
   xmlns:sodipodi="http://sodipodi.sourceforge.net/DTD/sodipodi-0.dtd"
   xmlns:inkscape="http://www.inkscape.org/namespaces/inkscape"
   width="642.51965"
   height="460.67914"
   version="1.1"
   id="svg7320"
   sodipodi:docname="vexV5Controller.svg"
   inkscape:version="0.92.0 r15299">
  <metadata
     id="metadata7324">
    <rdf:RDF>
      <cc:Work
         rdf:about="">
        <dc:format>image/svg+xml</dc:format>
        <dc:type
           rdf:resource="http://purl.org/dc/dcmitype/StillImage" />
        <dc:title></dc:title>
      </cc:Work>
    </rdf:RDF>
  </metadata>
  <sodipodi:namedview
     pagecolor="#ffffff"
     bordercolor="#666666"
     borderopacity="1"
     objecttolerance="10"
     gridtolerance="10"
     guidetolerance="10"
     inkscape:pageopacity="0"
     inkscape:pageshadow="2"
     inkscape:window-width="1920"
     inkscape:window-height="1001"
     id="namedview7322"
     showgrid="false"
     inkscape:zoom="1"
     inkscape:cx="434.66174"
     inkscape:cy="325.02295"
     inkscape:window-x="-9"
     inkscape:window-y="-9"
     inkscape:window-maximized="1"
     inkscape:current-layer="layer1"
     inkscape:measure-start="295,-36"
     inkscape:measure-end="561,-92" />
  <desc
     id="desc4485">C:\Users\phil\Desktop\controller.DXF - scale = 25.400000, origin = (0.000000, 0.000000), method = file</desc>
  <defs
     id="defs4500">
    <marker
       id="DistanceX"
       orient="auto"
       refX="0"
       refY="0"
       style="overflow:visible">
      <path
         d="M 3,-3 -3,3 M 0,-5 V 5"
         style="stroke:#000000;stroke-width:0.5"
         id="path4487"
         inkscape:connector-curvature="0" />
    </marker>
    <pattern
       height="8"
       id="Hatch"
       patternUnits="userSpaceOnUse"
       width="8"
       x="0"
       y="0">
      <path
         d="M8 4 l-4,4"
         linecap="square"
         stroke="#000000"
         stroke-width="0.25"
         id="path4490" />
      <path
         d="M6 2 l-4,4"
         linecap="square"
         stroke="#000000"
         stroke-width="0.25"
         id="path4492" />
      <path
         d="M4 0 l-4,4"
         linecap="square"
         stroke="#000000"
         stroke-width="0.25"
         id="path4494" />
    </pattern>
    <symbol
       id="*Model_Space" />
    <symbol
       id="*Paper_Space" />
    <symbol
       id="*Paper_Space0" />
  </defs>
  <g
     inkscape:groupmode="layer"
     inkscape:label="0"
     id="g7318"
     transform="translate(321.3095,-973.99846)"
     style="display:none">
    <path
       d="m 323.7731,1360.6299 c 0.14472,-2.6744 0.28943,-5.3488 0.40015,-8.0696 0.10824,-2.6597 0.18399,-5.3638 0.24127,-8.1236 0.0557,-2.6844 0.094,-5.4215 0.12048,-8.1728 0.0394,-4.0922 0.0528,-8.2158 -0.019,-12.3334 -0.0118,-0.6766 -0.0259,-1.353 -0.04,-2.0295"
       style="fill:none;stroke:#000000;stroke-width:0.89999998;stroke-linecap:round"
       id="path4510"
       inkscape:connector-curvature="0" />
    <path
       d="m -324.46923,1321.5742 c -0.0165,0.7854 -0.0329,1.5707 -0.0463,2.3558 -0.0707,4.1315 -0.0584,8.2596 -0.0248,12.3322 0.0341,4.1401 0.0902,8.223 0.21977,12.241 0.1318,4.087 0.33964,8.1068 0.54749,12.1267"
       style="fill:none;stroke:#000000;stroke-width:0.89999998;stroke-linecap:round"
       id="path4512"
       inkscape:connector-curvature="0" />
    <path
       d="m -319.10657,1234.2738 c -0.0132,0.1294 -0.0264,0.2589 -0.0395,0.3883 -0.18078,1.7807 -0.35359,3.5639 -0.52312,5.3473 -0.21194,2.2295 -0.41873,4.4592 -0.61873,6.6892 -0.24003,2.6763 -0.47028,5.3529 -0.69102,8.0299 -0.25212,3.0573 -0.49183,6.1152 -0.7199,9.1647 -0.21517,2.8771 -0.41999,5.7467 -0.6137,8.5957 -0.22395,3.2937 -0.43305,6.5598 -0.63286,9.8093 -0.1707,2.7761 -0.33461,5.5401 -0.47064,8.1621 -0.0481,0.9281 -0.0928,1.8384 -0.13745,2.7487"
       style="fill:none;stroke:#000000;stroke-width:0.89999998;stroke-linecap:round"
       id="path4522"
       inkscape:connector-curvature="0" />
    <path
       d="m -303.19943,1131.1497 c -0.0414,0.1415 -0.0828,0.2829 -0.1237,0.4245 -0.7145,2.4742 -1.26479,4.9721 -1.805,7.457 -0.46603,2.1437 -0.92457,4.2779 -1.35439,6.4026 -0.3631,1.7948 -0.70571,3.5829 -1.0317,5.3206 -0.35055,1.8686 -0.68187,3.6791 -1.00887,5.5338 -0.23814,1.3508 -0.47399,2.725 -0.70983,4.0992"
       style="fill:none;stroke:#000000;stroke-width:0.89999998;stroke-linecap:round"
       id="path4524"
       inkscape:connector-curvature="0" />
    <path
       d="m 309.20827,1160.2391 c -0.0842,-0.4963 -0.16848,-0.9926 -0.25303,-1.4849 -0.23262,-1.3543 -0.4676,-2.6784 -0.70606,-3.9997 -0.25977,-1.4394 -0.52368,-2.8755 -0.79964,-4.3439 -0.33189,-1.7661 -0.68122,-3.579 -1.05193,-5.3985 -0.42969,-2.1091 -0.8881,-4.227 -1.35329,-6.354 -0.53728,-2.4565 -1.08361,-4.9251 -1.79637,-7.3692 -0.0198,-0.068 -0.0398,-0.1359 -0.0597,-0.2038"
       style="fill:none;stroke:#000000;stroke-width:0.89999998;stroke-linecap:round"
       id="path4526"
       inkscape:connector-curvature="0" />
    <path
       d="m 323.56628,1293.4012 c -0.0253,-0.5228 -0.0507,-1.0457 -0.0774,-1.5759 -0.10097,-2.003 -0.22184,-4.1112 -0.34674,-6.2299 -0.1427,-2.4204 -0.29065,-4.8546 -0.4472,-7.3112 -0.17674,-2.7737 -0.36445,-5.5762 -0.5617,-8.3903 -0.22031,-3.1432 -0.45254,-6.3011 -0.69807,-9.4646 -0.24188,-3.1164 -0.49666,-6.2384 -0.76405,-9.3589 -0.17996,-2.1002 -0.36561,-4.1996 -0.5574,-6.2989 -0.16347,-1.7893 -0.33139,-3.5785 -0.50246,-5.3674 -0.14144,-1.4792 -0.28504,-2.9583 -0.43451,-4.4355 -0.0175,-0.1729 -0.0351,-0.3457 -0.0526,-0.5186"
       style="fill:none;stroke:#000000;stroke-width:0.89999998;stroke-linecap:round"
       id="path4528"
       inkscape:connector-curvature="0" />
    <path
       d="m 261.89282,1053.5431 c 0,0 0,0 0,0 0,0 0,0 -10e-6,0 0,0 -10e-6,0 -2e-5,0 -9e-5,0 -2.1e-4,-1e-4 -3.4e-4,-2e-4 -5.6e-4,-3e-4 -10e-4,-7e-4 -0.002,0 -0.003,0 -0.005,0 -0.008,0 -0.005,0 -0.009,-0.01 -0.0143,-0.01 -0.0414,-0.026 -0.0837,-0.053 -0.1269,-0.081 -0.0305,-0.02 -0.0614,-0.04 -0.0923,-0.06"
       style="fill:none;stroke:#000000;stroke-width:0.89999998;stroke-linecap:round"
       id="path4530"
       inkscape:connector-curvature="0" />
    <path
       d="m -323.34564,1360.6276 c 0.18014,2.454 0.36027,4.908 0.64675,7.3455 0.33821,2.8776 0.82463,5.7322 1.42247,8.5568 0.54411,2.5707 1.18051,5.1166 1.9344,7.6235 1.0101,3.3587 2.23111,6.6475 3.67344,9.8264 1.26781,2.7942 2.70663,5.5035 4.31253,8.1039 1.4186,2.2972 2.96758,4.5094 4.63762,6.6242 1.47833,1.872 3.05151,3.6677 4.71204,5.3808 1.47007,1.5166 3.00859,2.9686 4.61099,4.3518 1.41798,1.224 2.88598,2.3942 4.40233,3.5068 1.75388,1.287 3.57245,2.497 5.4534,3.62 1.59931,0.955 3.24371,1.847 4.93181,2.667 1.43548,0.6972 2.90254,1.3424 4.39906,1.9286 1.82783,0.716 3.69958,1.3442 5.60989,1.8696 1.67558,0.4609 3.38081,0.8427 5.10882,1.1318 2.04992,0.3428 4.13187,0.5552 6.21622,0.6349 2.48492,0.095 4.97323,0 7.42436,-0.2624 1.91473,-0.2063 3.80676,-0.5166 5.66682,-0.9165 2.14739,-0.4617 4.25216,-1.043 6.30774,-1.7249 2.41181,-0.8001 4.75591,-1.7389 7.0298,-2.797 1.98133,-0.922 3.90935,-1.9346 5.7828,-3.0312 2.14077,-1.253 4.21029,-2.6157 6.20383,-4.0794 2.28074,-1.6747 4.46203,-3.4818 6.5363,-5.4079 2.37258,-2.2031 4.60513,-4.562 6.6935,-7.049 1.88612,-2.2461 3.65462,-4.5968 5.31445,-7.0287 1.85159,-2.7128 3.56793,-5.5267 5.17129,-8.4116 1.79139,-3.2232 3.44172,-6.5352 5.00218,-9.8974 1.74335,-3.7563 3.37452,-7.5754 4.89131,-11.4561 0.96992,-2.4815 1.89307,-4.9882 2.81622,-7.495"
       style="fill:none;stroke:#000000;stroke-width:0.89999998;stroke-linecap:round"
       id="path4532"
       inkscape:connector-curvature="0" />
    <path
       d="m 186.52094,1364.4797 c 0.92458,2.5123 1.84915,5.0246 2.81998,7.5105 1.52943,3.9162 3.17364,7.7669 4.93106,11.5526 1.55757,3.3552 3.20407,6.6593 4.99087,9.8736 1.5832,2.8481 3.27655,5.6257 5.10195,8.3044 1.61923,2.3761 3.34236,4.6744 5.17738,6.8732 1.62889,1.9519 3.34596,3.8253 5.15039,5.6077 1.60102,1.5813 3.27082,3.091 5.00665,4.5215 1.53824,1.2677 3.12834,2.4734 4.7685,3.6126 1.89714,1.3178 3.86126,2.5468 5.89028,3.6792 1.72299,0.9617 3.49278,1.8537 5.30954,2.6691 1.54359,0.6927 3.12107,1.3301 4.73325,1.906 1.97723,0.7064 4.00664,1.3202 6.08549,1.8179 1.67856,0.4019 3.38934,0.7281 5.11693,0.9718 1.95761,0.2762 3.93679,0.4466 5.92232,0.5021 2.40659,0.067 4.8225,-0.034 7.2116,-0.3058 1.8678,-0.2123 3.71922,-0.5286 5.54217,-0.9408 2.0913,-0.4728 4.14514,-1.0719 6.14874,-1.7797 2.32854,-0.8226 4.58921,-1.792 6.7737,-2.881 1.88905,-0.9418 3.72113,-1.973 5.49541,-3.0814 2.01855,-1.2611 3.96228,-2.6221 5.82863,-4.0717 2.13138,-1.6554 4.16185,-3.4263 6.0844,-5.3036 2.19869,-2.147 4.25623,-4.4334 6.1558,-6.8449 1.41713,-1.799 2.74633,-3.6678 3.98242,-5.5992 1.35485,-2.117 2.59782,-4.3092 3.72543,-6.564 1.23982,-2.4792 2.34018,-5.0339 3.30078,-7.6452 1.06127,-2.8849 1.95196,-5.8388 2.70544,-8.8348 0.83678,-3.3273 1.50435,-6.7066 1.96026,-10.1217 0.41049,-3.0749 0.64939,-6.1788 0.88828,-9.2827"
       style="fill:none;stroke:#000000;stroke-width:0.89999998;stroke-linecap:round"
       id="path4534"
       inkscape:connector-curvature="0" />
    <path
       d="M 2.78338,974.50767 C 1.8556,974.50166 0.927799,974.49855 0,974.49845"
       style="fill:none;stroke:#000000;stroke-width:0.89999998;stroke-linecap:round"
       id="path4932"
       inkscape:connector-curvature="0" />
    <path
       d="m 37.331065,975.82093 c -1.640333,-0.10283 -3.280665,-0.20567 -4.921433,-0.30182 -1.751795,-0.10266 -3.504087,-0.1977 -5.256713,-0.28652 -1.863458,-0.0944 -3.727295,-0.18181 -5.591523,-0.26029 -1.974876,-0.0831 -3.95019,-0.15628 -5.925859,-0.21962 -2.0862,-0.0669 -4.172794,-0.12282 -6.259693,-0.16144 -2.197263,-0.0407 -4.394863,-0.0621 -6.592464,-0.0836"
       style="fill:none;stroke:#000000;stroke-width:0.89999998;stroke-linecap:round"
       id="path4934"
       inkscape:connector-curvature="0" />
    <path
       d="m 85.846229,980.37107 c -1.962002,-0.23572 -3.924004,-0.47144 -5.886992,-0.69887 -1.999079,-0.23161 -3.99918,-0.45463 -5.999969,-0.67142 -2.036785,-0.2207 -4.074284,-0.43494 -6.112544,-0.64185 -2.074186,-0.21055 -4.149161,-0.4135 -6.224822,-0.60961 -3.238686,-0.30599 -6.479043,-0.59532 -9.721495,-0.85904 -4.853318,-0.39472 -9.71133,-0.73204 -14.569342,-1.06935"
       style="fill:none;stroke:#000000;stroke-width:0.89999998;stroke-linecap:round"
       id="path4936"
       inkscape:connector-curvature="0" />
    <path
       d="m 148.39223,990.72314 c -1.32935,-0.29022 -2.65869,-0.58045 -3.98961,-0.86345 -1.31966,-0.28061 -2.64087,-0.55413 -3.96307,-0.82278 -1.31102,-0.26637 -2.62303,-0.52796 -3.93604,-0.78448 -1.30191,-0.25435 -2.6048,-0.50373 -3.90857,-0.74853 -1.29274,-0.24273 -2.58634,-0.48098 -3.88072,-0.71497 -1.28343,-0.23202 -2.56763,-0.45986 -3.85252,-0.6838 -1.27402,-0.22205 -2.54871,-0.44027 -3.82401,-0.6549 -1.26449,-0.21283 -2.52959,-0.42213 -3.79525,-0.62796 -3.40363,-0.5535 -6.81138,-1.08182 -10.22225,-1.58958 -3.48531,-0.51884 -6.97387,-1.01619 -10.466288,-1.48498 -3.566547,-0.47874 -7.13711,-0.92769 -10.707673,-1.37664"
       style="fill:none;stroke:#000000;stroke-width:0.89999998;stroke-linecap:round"
       id="path4938"
       inkscape:connector-curvature="0" />
    <path
       d="m 180.50439,999.55566 c -5.28738,-1.84957 -10.63308,-3.45124 -15.99504,-4.8978 -5.36197,-1.44657 -10.74007,-2.73936 -16.11712,-3.93472"
       style="fill:none;stroke:#000000;stroke-width:0.89999998;stroke-linecap:round"
       id="path4940"
       inkscape:connector-curvature="0" />
    <path
       d="m 218.45101,1018.4714 c -0.69537,-0.4433 -1.39074,-0.8867 -2.08925,-1.3251 -0.80065,-0.5025 -1.60544,-0.9987 -2.41323,-1.4899 -0.47254,-0.2873 -0.94611,-0.573 -1.42081,-0.8569 -1.04446,-0.6247 -2.09441,-1.2405 -3.1498,-1.8473 -1.71023,-0.9832 -3.43476,-1.9425 -5.17377,-2.8752 -1.38266,-0.7415 -2.77447,-1.4662 -4.17554,-2.1728 -1.62948,-0.8217 -3.27148,-1.6187 -4.92587,-2.3894 -1.55664,-0.7252 -3.12425,-1.4269 -4.70281,-2.1029 -1.06952,-0.4581 -2.14406,-0.9043 -3.22309,-1.3395 -1.09463,-0.4414 -2.19388,-0.8716 -3.29881,-1.2863 -1.12065,-0.4207 -2.24714,-0.82557 -3.37364,-1.23044"
       style="fill:none;stroke:#000000;stroke-width:0.89999998;stroke-linecap:round"
       id="path4942"
       inkscape:connector-curvature="0" />
    <path
       d="m 251.95822,1045.6394 c -0.30296,-0.2855 -0.60592,-0.571 -0.9102,-0.8547 -0.30144,-0.2811 -0.60418,-0.5605 -0.90841,-0.84 -0.30589,-0.281 -0.6133,-0.562 -0.92277,-0.8442 -0.30895,-0.2817 -0.61997,-0.5644 -0.93303,-0.8483 -0.65926,-0.5979 -1.32762,-1.2008 -2.00582,-1.8118 -0.60542,-0.5454 -1.21868,-1.0972 -1.83936,-1.6568 -1.31083,-1.182 -2.65473,-2.399 -4.01475,-3.6102 -0.59929,-0.5337 -1.2017,-1.0662 -1.80796,-1.5961 -0.77861,-0.6806 -1.56356,-1.3567 -2.35521,-2.0252 -0.91715,-0.7745 -1.84329,-1.5387 -2.77834,-2.2919 -1.04204,-0.8393 -2.09516,-1.6649 -3.15854,-2.4773 -1.17199,-0.8953 -2.35645,-1.7746 -3.55141,-2.6398 -1.30486,-0.9448 -2.62225,-1.8727 -3.9548,-2.7787 -1.44367,-0.9815 -2.90514,-1.9373 -4.36661,-2.893"
       style="fill:none;stroke:#000000;stroke-width:0.89999998;stroke-linecap:round"
       id="path4944"
       inkscape:connector-curvature="0" />
    <path
       d="m 254.10509,1047.4349 c -0.70572,-0.5996 -1.42432,-1.2033 -2.14687,-1.7955"
       style="fill:none;stroke:#000000;stroke-width:0.89999998;stroke-linecap:round"
       id="path4946"
       inkscape:connector-curvature="0" />
    <path
       d="m 254.46373,1047.7397 c -0.11935,-0.1018 -0.2389,-0.2034 -0.35864,-0.3048"
       style="fill:none;stroke:#000000;stroke-width:0.89999998;stroke-linecap:round"
       id="path4948"
       inkscape:connector-curvature="0" />
    <path
       d="m -254.1051,1047.4349 c -0.11975,0.1014 -0.23931,0.2031 -0.35867,0.3048"
       style="fill:none;stroke:#000000;stroke-width:0.89999998;stroke-linecap:round"
       id="path4960"
       inkscape:connector-curvature="0" />
    <path
       d="m -251.95822,1045.6394 c -0.72255,0.5922 -1.44127,1.1961 -2.14688,1.7955"
       style="fill:none;stroke:#000000;stroke-width:0.89999998;stroke-linecap:round"
       id="path4962"
       inkscape:connector-curvature="0" />
    <path
       d="m -218.4462,1018.4683 c -0.8202,0.5334 -1.64041,1.0669 -2.45582,1.6074 -0.78353,0.5194 -1.56262,1.0453 -2.33747,1.5773 -0.74315,0.5103 -1.48239,1.026 -2.21747,1.5476 -0.70354,0.4991 -1.40326,1.0035 -2.0992,1.513 -0.66455,0.4865 -1.32564,0.9776 -1.98296,1.4736 -0.62615,0.4726 -1.24887,0.9495 -1.86799,1.4311 -0.58819,0.4574 -1.17313,0.919 -1.75471,1.3847 -0.55091,0.4412 -1.09881,0.886 -1.6435,1.3348 -0.5143,0.4237 -1.02574,0.8509 -1.53447,1.2812 -0.79755,0.6745 -1.58843,1.3565 -2.37284,2.043 -0.60633,0.5307 -1.20879,1.064 -1.80811,1.5982 -1.35682,1.2094 -2.69753,2.4232 -4.00482,3.6017 -0.61303,0.5527 -1.21871,1.0976 -1.81675,1.6365 -0.66873,0.6027 -1.32792,1.198 -1.97817,1.787 -0.61931,0.561 -1.23051,1.1162 -1.83464,1.6735 -0.60578,0.5588 -1.20444,1.1197 -1.8031,1.6805"
       style="fill:none;stroke:#000000;stroke-width:0.89999998;stroke-linecap:round"
       id="path4964"
       inkscape:connector-curvature="0" />
    <path
       d="m -180.49829,999.55345 c -0.67974,0.24248 -1.35947,0.48495 -2.03718,0.73305 -0.67157,0.2458 -1.34114,0.4971 -2.00909,0.7527 -0.66183,0.2532 -1.32206,0.5105 -1.98053,0.7724 -0.65235,0.2594 -1.30298,0.5231 -1.95184,0.7912 -0.64278,0.2655 -1.28384,0.5352 -1.92313,0.8091 -1.57848,0.6762 -3.14617,1.3779 -4.70285,2.103 -1.65467,0.7707 -3.2969,1.568 -4.92662,2.3898 -1.40084,0.7064 -2.79243,1.4311 -4.17487,2.1725 -1.73879,0.9325 -3.4631,1.8917 -5.17311,2.8748 -1.05592,0.607 -2.1064,1.2232 -3.15138,1.8482 -0.47331,0.283 -0.94549,0.5679 -1.41666,0.8544 -0.80746,0.491 -1.61192,0.9869 -2.41225,1.4892 -0.69823,0.4382 -1.39331,0.8814 -2.0884,1.3245"
       style="fill:none;stroke:#000000;stroke-width:0.89999998;stroke-linecap:round"
       id="path4966"
       inkscape:connector-curvature="0" />
    <path
       d="m -148.38883,990.7224 c -5.37658,1.19521 -10.75422,2.48781 -16.11573,3.93414 -5.3615,1.44633 -10.70677,3.04771 -15.99373,4.89691"
       style="fill:none;stroke:#000000;stroke-width:0.89999998;stroke-linecap:round"
       id="path4968"
       inkscape:connector-curvature="0" />
    <path
       d="m -85.846416,980.37109 c -1.794729,0.2224 -3.589458,0.4448 -5.383236,0.67454 -1.775301,0.22737 -3.549672,0.46193 -5.323286,0.70195 -1.755108,0.23751 -3.509472,0.48037 -5.262992,0.72915 -1.73498,0.24614 -3.46912,0.49807 -5.20241,0.75569 -1.7147,0.25485 -3.42857,0.51528 -5.14151,0.7816 -1.69431,0.26344 -3.3877,0.53264 -5.08012,0.80785 -2.54272,0.41349 -5.08323,0.84054 -7.62099,1.28313 -2.5808,0.4501 -5.15875,0.91628 -7.73366,1.39884 -2.61855,0.49074 -5.23395,0.99842 -7.84373,1.53283 -2.65403,0.54348 -5.30226,1.1146 -7.95048,1.68573"
       style="fill:none;stroke:#000000;stroke-width:0.89999998;stroke-linecap:round"
       id="path4970"
       inkscape:connector-curvature="0" />
    <path
       d="m -37.331065,975.82093 c -1.797807,0.11934 -3.595615,0.23868 -5.392877,0.36556 -1.619356,0.11431 -3.23827,0.23474 -4.856825,0.35959 -1.440113,0.11109 -2.879943,0.22567 -4.319438,0.34419 -1.260519,0.10378 -2.520781,0.21057 -3.78078,0.32027 -1.08051,0.0941 -2.160827,0.1903 -3.240948,0.28861 -0.900158,0.0819 -1.800179,0.16532 -2.70006,0.25018 -2.759541,0.26022 -5.517753,0.53426 -8.274713,0.82012 -2.693097,0.27924 -5.385001,0.56976 -8.075085,0.8758 -2.626031,0.29876 -5.250328,0.6123 -7.874625,0.92584"
       style="fill:none;stroke:#000000;stroke-width:0.89999998;stroke-linecap:round"
       id="path4972"
       inkscape:connector-curvature="0" />
    <path
       d="m -2.785941,974.50769 c -1.331763,0.0108 -2.663526,0.0216 -3.995195,0.0396 -1.291959,0.0175 -2.58383,0.0418 -3.875587,0.0707 -1.252,0.028 -2.503893,0.0603 -3.755648,0.0972 -1.211958,0.0357 -2.423788,0.0757 -3.63547,0.11947 -1.17187,0.0424 -2.343602,0.0883 -3.515183,0.13771 -1.131741,0.0477 -2.263341,0.0985 -3.394795,0.1523 -1.091574,0.0519 -2.183011,0.10643 -3.274303,0.16357 -1.05137,0.0551 -2.102604,0.11251 -3.15371,0.17207 -1.011141,0.0573 -2.022162,0.11654 -3.033016,0.17826 -0.970842,0.0593 -1.94153,0.12081 -2.912217,0.18236"
       style="fill:none;stroke:#000000;stroke-width:0.89999998;stroke-linecap:round"
       id="path4974"
       inkscape:connector-curvature="0" />
    <path
       d="m 0,974.49845 c -0.928654,10e-5 -1.857307,0.003 -2.785941,0.009"
       style="fill:none;stroke:#000000;stroke-width:0.89999998;stroke-linecap:round"
       id="path4976"
       inkscape:connector-curvature="0" />
    <path
       d="m -162.94479,1311.4961 c 0.31645,-0.4349 0.63291,-0.8698 0.95571,-1.3015 0.44053,-0.5891 0.89289,-1.1723 1.35505,-1.7501 0.58249,-0.7283 1.18054,-1.4482 1.79621,-2.1577 0.73153,-0.8431 1.48793,-1.6716 2.27053,-2.4829 0.88438,-0.9168 1.80222,-1.8115 2.75327,-2.6805 1.05302,-0.9621 2.14675,-1.8927 3.27947,-2.7889 1.25977,-0.9966 2.56777,-1.9506 3.91691,-2.8623 1.88331,-1.2725 3.84676,-2.4626 5.87715,-3.5675 3.26799,-1.7784 6.70937,-3.3363 10.25017,-4.7053 2.59868,-1.0047 5.25092,-1.9076 7.94052,-2.7243 4.8013,-1.458 9.72169,-2.6413 14.68968,-3.6486 6.57309,-1.3326 13.229508,-2.3569 19.919485,-3.1745 4.911136,-0.6002 9.840355,-1.089 14.778034,-1.5066 4.874314,-0.4123 9.756872,-0.7552 14.644049,-1.0428 4.852815,-0.2856 9.710183,-0.5165 14.570009,-0.7014 4.852047,-0.1846 9.706544,-0.3234 14.562082,-0.4277 4.873578,-0.1047 9.748204,-0.1747 14.623102,-0.2145 4.920936,-0.04 9.842147,-0.05 14.763359,-0.059"
       style="fill:none;stroke:#000000;stroke-width:0.89999998;stroke-linecap:round"
       id="path5404"
       inkscape:connector-curvature="0" />
    <path
       d="m 0,1273.7 c 2.692709,0 5.385418,0.01 8.078091,0.016 2.675136,0.011 5.350236,0.029 8.025225,0.055 2.662025,0.026 5.32394,0.059 7.985631,0.1028 2.653378,0.043 5.306532,0.096 7.959301,0.16 2.648922,0.064 5.297459,0.1388 7.945389,0.2266 2.648179,0.088 5.29575,0.1882 7.942423,0.3031 2.651095,0.115 5.301288,0.2445 7.950247,0.3896 2.657693,0.1456 5.314144,0.307 7.968852,0.4863 2.668018,0.1803 5.334277,0.3786 7.9982,0.5969 2.682082,0.2198 5.361797,0.4599 8.037807,0.7262 2.698957,0.2686 5.394145,0.5639 8.083403,0.8934 2.913258,0.3569 5.819556,0.7539 8.715616,1.1977 2.936724,0.45 5.862925,0.948 8.773995,1.5023 2.96009,0.5637 5.90454,1.1855 8.82258,1.8855 2.96004,0.7101 5.8929,1.5007 8.78213,2.3915 2.51829,0.7764 5.00342,1.629 7.43768,2.5725 1.37078,0.5314 2.72543,1.0915 4.06242,1.68 1.28798,0.5669 2.55958,1.1601 3.80862,1.7849 1.2312,0.6158 2.44048,1.2624 3.62601,1.9379 1.2057,0.6871 2.38683,1.4041 3.5395,2.1517 1.19109,0.7724 2.35179,1.5774 3.47837,2.4149 1.64695,1.2243 3.22098,2.5179 4.71257,3.8751 1.27817,1.1631 2.4958,2.3729 3.65349,3.6202 0.93856,1.0112 1.83772,2.0471 2.70274,3.1017 0.62441,0.7613 1.23104,1.5324 1.81713,2.3138 0.35069,0.4676 0.69403,0.9389 1.03737,1.4102"
       style="fill:none;stroke:#000000;stroke-width:0.89999998;stroke-linecap:round"
       id="path5438"
       inkscape:connector-curvature="0" />
    <path
       d="m 324.20874,1311.496 c 0.0201,0 0.0355,0 0.0458,0"
       style="fill:none;stroke:#000000;stroke-width:0.89999998;stroke-linecap:round"
       id="path5548"
       inkscape:connector-curvature="0" />
    <path
       d="m 324.25706,1311.5826 -0.001,-0.043 -10e-4,-0.043 z"
       style="fill:none;stroke:#000000;stroke-width:0.89999998;stroke-linecap:round"
       id="path5550"
       inkscape:connector-curvature="0" />
    <path
       d="m 163.03069,1311.616 c 0.34334,0.4865 0.68668,0.9731 1.02297,1.4636 0.341,0.4973 0.67476,0.9988 1.00344,1.5029 0.33323,0.511 0.66123,1.0249 0.98369,1.5416 0.32686,0.5238 0.64802,1.0505 0.96385,1.5798 0.32008,0.5364 0.63468,1.0756 0.94402,1.6172 0.31341,0.5488 0.62142,1.1002 0.9243,1.6539 0.30679,0.5609 0.60831,1.1242 0.90484,1.6897 0.30025,0.5725 0.59539,1.1474 0.88577,1.7243 0.29396,0.584 0.58305,1.1701 0.86764,1.7582 0.2881,0.5953 0.5716,1.1925 0.85091,1.7914 0.28273,0.6063 0.56116,1.2143 0.83575,1.8239 0.27791,0.617 0.55187,1.2356 0.82237,1.8556 0.27372,0.6274 0.54388,1.2562 0.81097,1.8863 0.27022,0.6374 0.5373,1.2762 0.80177,1.916 0.78196,1.8917 1.54111,3.793 2.28313,5.7012 0.78899,2.029 1.55861,4.0659 2.31651,6.1078 0.80294,2.1633 1.59274,4.3322 2.37411,6.5055 0.82514,2.295 1.6409,4.595 2.45665,6.895"
       style="fill:none;stroke:#000000;stroke-width:0.89999998;stroke-linecap:round"
       id="path5562"
       inkscape:connector-curvature="0" />
    <path
       d="m 162.94479,1311.4961 c 0.007,0.01 0.0143,0.02 0.0215,0.03 0.007,0.01 0.0143,0.02 0.0215,0.03 0.0143,0.02 0.0286,0.04 0.0429,0.06"
       style="fill:none;stroke:#000000;stroke-width:0.89999998;stroke-linecap:round"
       id="path5564"
       inkscape:connector-curvature="0" />
    <path
       d="m -185.08338,1360.6299 c 0.81384,-2.2946 1.62767,-4.5891 2.45083,-6.8788 0.78069,-2.1715 1.56976,-4.3386 2.37193,-6.5001 0.75849,-2.0437 1.52868,-4.0824 2.31824,-6.1132 0.74401,-1.9137 1.50522,-3.8203 2.2894,-5.7174 0.46081,-1.1148 0.92956,-2.2263 1.409,-3.3335 0.46964,-1.0846 0.94955,-2.1651 1.44218,-3.2403 0.48232,-1.0527 0.97683,-2.1005 1.48585,-3.1421 0.49821,-1.0195 1.01031,-2.0331 1.53812,-3.0398 0.5164,-0.9849 1.04782,-1.9632 1.59623,-2.9334 0.53604,-0.9484 1.0883,-1.8891 1.65638,-2.822 0.55484,-0.9111 1.12478,-1.8148 1.71712,-2.7062 0.57823,-0.8702 1.17782,-1.7287 1.77741,-2.5871"
       style="fill:none;stroke:#000000;stroke-width:0.89999998;stroke-linecap:round"
       id="path5568"
       inkscape:connector-curvature="0" />
    <path
       d="m -266.93435,1056.4698 c -0.4843,0.6776 -0.96859,1.3552 -1.44639,2.0373 -0.47404,0.6768 -0.94168,1.3579 -1.40491,2.042 -0.45955,0.6786 -0.91476,1.3602 -1.36538,2.0446 -0.447,0.679 -0.88947,1.3609 -1.32772,2.0455 -0.4347,0.679 -0.86523,1.3606 -1.29172,2.0447 -0.42301,0.6786 -0.84203,1.3595 -1.25723,2.0428 -0.41178,0.6776 -0.81981,1.3574 -1.22422,2.0394 -0.40105,0.6763 -0.79854,1.3546 -1.19264,2.0349 -0.39079,0.6746 -0.77823,1.3511 -1.16248,2.0293 -0.381,0.6725 -0.75886,1.3468 -1.13373,2.0227 -0.37168,0.6702 -0.74042,1.3419 -1.10638,2.0152 -0.36281,0.6675 -0.72289,1.3364 -1.08039,2.0067 -0.35441,0.6645 -0.70628,1.3303 -1.05572,1.9974 -0.34641,0.6613 -0.69043,1.3237 -1.03217,1.9874 -0.33875,0.6578 -0.67527,1.3168 -1.00965,1.9768 -0.33143,0.6542 -0.66077,1.3094 -0.98812,1.9656 -0.32443,0.6504 -0.6469,1.3017 -0.96753,1.954 -0.31776,0.6463 -0.63372,1.2936 -0.94805,1.9416 -0.31151,0.6422 -0.62143,1.2851 -0.92997,1.9287 -0.30574,0.6378 -0.61012,1.2762 -0.91329,1.9151 -0.30042,0.6332 -0.59965,1.2669 -0.89809,1.9009 -0.29571,0.6282 -0.59063,1.2568 -0.88428,1.886 -0.29094,0.6233 -0.58064,1.2472 -0.87034,1.8712"
       style="fill:none;stroke:#000000;stroke-width:0.89999998;stroke-linecap:round"
       id="path5592"
       inkscape:connector-curvature="0" />
    <path
       d="m -254.46363,1047.7398 c -0.27962,0.238 -0.55924,0.4761 -0.83537,0.7108 -0.2534,0.2154 -0.50387,0.428 -0.75151,0.6375 -0.51537,0.4359 -1.01848,0.8582 -1.50373,1.2584 -0.48508,0.4001 -0.9523,0.7781 -1.39435,1.1236 -0.44564,0.3484 -0.8657,0.6637 -1.26183,0.9506 -0.78932,0.5717 -1.48361,1.0304 -2.09802,1.4123 -0.28693,0.1783 -0.55643,0.3398 -0.81234,0.4908 -0.29256,0.1726 -0.56735,0.3313 -0.82655,0.4803 -0.49137,0.2825 -0.92671,0.53 -1.2977,0.737 -0.36339,0.2027 -0.66504,0.3666 -0.89968,0.4871 -0.23621,0.1212 -0.40452,0.1984 -0.52778,0.2612 -0.0617,0.032 -0.11212,0.059 -0.15513,0.088 -0.0215,0.014 -0.0411,0.029 -0.0585,0.044 -0.0175,0.015 -0.0329,0.032 -0.0482,0.048"
       style="fill:none;stroke:#000000;stroke-width:0.89999998;stroke-linecap:round"
       id="path5594"
       inkscape:connector-curvature="0" />
    <path
       d="m -309.17998,1160.3946 c -1.18531,7.1446 -2.37062,14.2891 -3.44798,21.4666 -1.28372,8.5524 -2.41418,17.1516 -3.48551,25.7647 -1.07132,8.6131 -2.0835,17.24 -2.9172,25.8909 -0.3524,3.6568 -0.67291,7.3178 -0.99342,10.9788"
       style="fill:none;stroke:#000000;stroke-width:0.89999998;stroke-linecap:round"
       id="path5596"
       inkscape:connector-curvature="0" />
    <path
       d="m -292.42475,1102.1996 c -0.22412,0.4853 -0.44825,0.9707 -0.67151,1.4573 -0.22101,0.4817 -0.44118,0.9647 -0.66041,1.4485 -0.21714,0.4792 -0.43336,0.9593 -0.64837,1.4403 -0.21305,0.4766 -0.42491,0.9542 -0.63532,1.4326 -0.2086,0.4744 -0.41577,0.9496 -0.62126,1.4256 -0.20382,0.4722 -0.40598,0.9451 -0.60628,1.4189 -0.19871,0.4701 -0.39559,0.9409 -0.59039,1.4125 -0.19334,0.4681 -0.38463,0.9368 -0.57367,1.4063 -0.18766,0.4661 -0.3731,0.9329 -0.55611,1.4003 -0.18175,0.4642 -0.36111,0.929 -0.53781,1.3945 -0.38167,1.0053 -0.75097,2.0135 -1.1071,3.0235 -0.34958,0.9914 -0.68646,1.9846 -1.01085,2.978 -0.31874,0.9761 -0.62541,1.9526 -0.92128,2.9284 -0.29096,0.9596 -0.57147,1.9186 -0.83896,2.8746 -0.26328,0.9411 -0.51394,1.8794 -0.7646,2.8176"
       style="fill:none;stroke:#000000;stroke-width:0.89999998;stroke-linecap:round"
       id="path5598"
       inkscape:connector-curvature="0" />
    <path
       d="m 266.93435,1056.4698 c -0.0157,-0.017 -0.0315,-0.033 -0.0489,-0.049 -0.0174,-0.015 -0.0366,-0.029 -0.0578,-0.043 -0.0425,-0.028 -0.0932,-0.057 -0.15511,-0.088 -0.12359,-0.063 -0.29159,-0.1402 -0.52764,-0.2613 -0.23446,-0.1202 -0.53606,-0.2841 -0.89935,-0.4868 -0.37094,-0.207 -0.80619,-0.4545 -1.29747,-0.7369 -0.25913,-0.1489 -0.53384,-0.3076 -0.82631,-0.4801 -0.2558,-0.1509 -0.52518,-0.3123 -0.81198,-0.4905 -0.61404,-0.3816 -1.30793,-0.84 -2.09672,-1.4112 -0.39629,-0.287 -0.81653,-0.6025 -1.26239,-0.9509 -0.44228,-0.3457 -0.90977,-0.7239 -1.39518,-1.1243 -0.48549,-0.4004 -0.9889,-0.823 -1.50453,-1.2591 -0.24799,-0.2098 -0.4988,-0.4227 -0.75255,-0.6384 -0.27595,-0.2345 -0.55538,-0.4724 -0.83482,-0.7102"
       style="fill:none;stroke:#000000;stroke-width:0.89999998;stroke-linecap:round"
       id="path5600"
       inkscape:connector-curvature="0" />
    <path
       d="m 292.42475,1102.1996 c -0.55874,-1.2005 -1.11747,-2.4009 -1.68042,-3.5995 -0.57297,-1.2199 -1.15031,-2.4378 -1.73225,-3.6535 -0.59219,-1.2372 -1.18913,-2.4721 -1.79256,-3.7039 -0.61394,-1.2533 -1.2346,-2.5034 -1.86272,-3.7497 -0.63892,-1.2678 -1.28557,-2.5317 -1.94067,-3.7914 -0.66619,-1.2809 -1.34111,-2.5575 -2.02562,-3.8289 -0.69595,-1.2927 -1.4018,-2.5802 -2.11873,-3.8616 -0.72871,-1.3025 -1.46885,-2.5987 -2.22135,-3.8878 -0.7647,-1.3101 -1.54215,-2.6129 -2.33389,-3.9071 -0.80433,-1.3148 -1.62341,-2.6207 -2.45654,-3.9179 -0.84619,-1.3175 -1.70689,-2.626 -2.58989,-3.9195 -0.89659,-1.3133 -1.81618,-2.6112 -2.73576,-3.909"
       style="fill:none;stroke:#000000;stroke-width:0.89999998;stroke-linecap:round"
       id="path5602"
       inkscape:connector-curvature="0" />
    <path
       d="m 303.16867,1131.0585 c -0.13661,-0.5158 -0.27321,-1.0316 -0.41352,-1.5485 -0.1415,-0.5212 -0.28675,-1.0435 -0.43496,-1.5663 -0.14952,-0.5274 -0.30205,-1.0553 -0.45795,-1.5836 -0.15732,-0.5331 -0.31807,-1.0667 -0.48227,-1.6004 -0.16575,-0.5387 -0.335,-1.0776 -0.50785,-1.6165 -0.17452,-0.5441 -0.35272,-1.0882 -0.53464,-1.632 -0.18373,-0.5493 -0.37126,-1.0982 -0.56263,-1.6468 -0.19333,-0.5541 -0.39057,-1.1078 -0.59178,-1.6607 -0.20333,-0.5588 -0.4107,-1.1169 -0.62185,-1.6742 -0.35616,-0.94 -0.72306,-1.8776 -1.09893,-2.8125 -0.38141,-0.9486 -0.77206,-1.8944 -1.17021,-2.837 -0.40454,-0.9576 -0.81682,-1.912 -1.23474,-2.8631 -0.42527,-0.9678 -0.85638,-1.9322 -1.29179,-2.8919 -0.44395,-0.9785 -0.89238,-1.9519 -1.3408,-2.9254"
       style="fill:none;stroke:#000000;stroke-width:0.89999998;stroke-linecap:round"
       id="path5604"
       inkscape:connector-curvature="0" />
    <path
       d="m 322.11029,1269.5828 c -0.0751,-1.2003 -0.15017,-2.4006 -0.23022,-3.6006 -0.49059,-7.355 -1.16749,-14.6997 -1.8444,-22.0443"
       style="fill:none;stroke:#000000;stroke-width:0.89999998;stroke-linecap:round"
       id="path5606"
       inkscape:connector-curvature="0" />
    <path
       d="m 319.90215,1242.5115 c -0.72291,-7.3228 -1.44581,-14.6455 -2.25949,-21.9525 -0.84107,-7.553 -1.77915,-15.0892 -2.76863,-22.6127 -0.98942,-7.523 -2.03026,-15.0334 -3.20879,-22.4999 -0.80163,-5.0787 -1.66698,-10.1371 -2.53232,-15.1955"
       style="fill:none;stroke:#000000;stroke-width:0.89999998;stroke-linecap:round"
       id="path5608"
       inkscape:connector-curvature="0" />
    <path
       d="m -323.76305,1360.7326 c 0.0485,0.7294 0.0969,1.4588 0.15327,2.1873 0.0592,0.7655 0.12711,1.5299 0.20184,2.2934 0.0781,0.7982 0.16374,1.5953 0.25783,2.3912 0.0979,0.8283 0.20506,1.6552 0.32165,2.4804 0.12086,0.8555 0.2519,1.7091 0.39365,2.5605 0.14641,0.8795 0.30423,1.7565 0.47398,2.6309 0.17474,0.9001 0.36211,1.7972 0.56262,2.691 0.20578,0.9172 0.42541,1.8308 0.6594,2.7403 0.23946,0.9307 0.49395,1.8571 0.76394,2.7785 0.27561,0.9405 0.56736,1.8758 0.87569,2.8051 0.31398,0.9464 0.64514,1.8866 0.99379,2.8198 0.35428,0.9483 0.72661,1.8894 1.11718,2.8224 0.39607,0.9462 0.81088,1.8841 1.24448,2.8129 0.43886,0.9401 0.89695,1.8708 1.37401,2.7913 0.48194,0.9299 0.98324,1.8494 1.50399,2.7579 1.98048,3.4552 4.24237,6.7518 6.75603,9.8427 1.81879,2.2364 3.7694,4.3651 5.84004,6.3741 1.28129,1.2432 2.60854,2.4406 3.98016,3.5887 1.27309,1.0657 2.58441,2.0889 3.93235,3.066 0.68148,0.4939 1.37233,0.9761 2.07273,1.4457 0.71633,0.4802 1.44264,0.9472 2.17798,1.4017 0.74985,0.4634 1.50908,0.9139 2.281,1.345 0.78524,0.4385 1.58361,0.857 2.38197,1.2754"
       style="fill:none;stroke:#000000;stroke-width:0.89999998;stroke-linecap:round"
       id="path5630"
       inkscape:connector-curvature="0" />
    <path
       d="m -233.75204,1428.6284 c 0.45857,-0.2262 0.91713,-0.4524 1.37153,-0.6847 0.44752,-0.2287 0.89101,-0.4633 1.33149,-0.702 0.43318,-0.2347 0.86346,-0.4734 1.29053,-0.7162 0.4193,-0.2385 0.83551,-0.4811 1.24866,-0.7274 0.40492,-0.2415 0.8069,-0.4867 1.2059,-0.7355 0.3903,-0.2433 0.77775,-0.4901 1.16231,-0.7402 0.37541,-0.2442 0.74808,-0.4915 1.11795,-0.7419 0.36028,-0.244 0.71791,-0.4908 1.0729,-0.7405 1.54103,-1.0838 3.03236,-2.2212 4.47234,-3.4057 1.40914,-1.1591 2.76911,-2.3632 4.07915,-3.607 1.3221,-1.2552 2.59334,-2.5508 3.81395,-3.8816 1.21644,-1.3262 2.3826,-2.6873 3.49871,-4.0791 2.25247,-2.8088 4.30113,-5.7427 6.16575,-8.7599 1.87872,-3.0401 3.57061,-6.1648 5.1291,-9.3371 1.53418,-3.1229 2.93908,-6.2917 4.26606,-9.4828 0.9108,-2.1903 1.78488,-4.391 2.63799,-6.5972 0.83733,-2.1654 1.65445,-4.3362 2.45087,-6.511 0.77751,-2.1231 1.53528,-4.2501 2.29306,-6.3771"
       style="fill:none;stroke:#000000;stroke-width:0.89999998;stroke-linecap:round"
       id="path5634"
       inkscape:connector-curvature="0" />
    <path
       d="m 185.08371,1360.6299 c 0.02,0.057 0.04,0.1143 0.06,0.1715"
       style="fill:none;stroke:#000000;stroke-width:0.89999998;stroke-linecap:round"
       id="path5636"
       inkscape:connector-curvature="0" />
    <path
       d="m 202.68517,1399.5136 c -0.21231,-0.2968 -0.42462,-0.5936 -0.62645,-0.8953 -0.98579,-1.4733 -1.72154,-3.062 -2.45729,-4.6508"
       style="fill:none;stroke:#000000;stroke-width:0.89999998;stroke-linecap:round"
       id="path5638"
       inkscape:connector-curvature="0" />
    <path
       d="m 324.37837,1321.9032 -0.12131,-10.3206"
       style="fill:none;stroke:#000000;stroke-width:0.89999998;stroke-linecap:round"
       id="path5726"
       inkscape:connector-curvature="0" />
    <path
       d="m -324.25706,1311.5826 -0.11747,9.9937"
       style="fill:none;stroke:#000000;stroke-width:0.89999998;stroke-linecap:round"
       id="path5728"
       inkscape:connector-curvature="0" />
    <path
       d="m -321.56646,1262.2079 -1.4111,20.6479"
       style="fill:none;stroke:#000000;stroke-width:0.89999998;stroke-linecap:round"
       id="path5730"
       inkscape:connector-curvature="0" />
    <path
       d="m -323.23365,1287.2973 -1.02037,24.1988"
       style="fill:none;stroke:#000000;stroke-width:0.89999998;stroke-linecap:round"
       id="path5732"
       inkscape:connector-curvature="0" />
    <path
       d="m 324.25402,1311.4961 -0.87165,-21.5844"
       style="fill:none;stroke:#000000;stroke-width:0.89999998;stroke-linecap:round"
       id="path5734"
       inkscape:connector-curvature="0" />
    <path
       d="m -266.93435,1056.4698 0.0211,-0.027"
       style="fill:none;stroke:#000000;stroke-width:0.89999998;stroke-linecap:round"
       id="path5736"
       inkscape:connector-curvature="0" />
    <path
       d="m 185.14374,1360.8014 1.35714,3.686"
       style="fill:none;stroke:#000000;stroke-width:0.89999998;stroke-linecap:round"
       id="path5742"
       inkscape:connector-curvature="0" />
    <path
       d="m -320.02409,1244.4956 -1.14535,12.658"
       style="fill:none;stroke:#414141;stroke-width:0.89999998;stroke-linecap:round"
       id="path5754"
       inkscape:connector-curvature="0" />
    <path
       d="m -266.91328,1056.4432 a 0.377953,0.377953 0 0 0 -0.0212,0.027"
       style="fill:none;stroke:#000000;stroke-width:0.89999998;stroke-linecap:round"
       id="path5772"
       inkscape:connector-curvature="0" />
    <path
       d="m 266.92437,1056.4566 a 0.377953,0.377953 0 0 0 -0.0111,-0.013"
       style="fill:none;stroke:#000000;stroke-width:0.89999998;stroke-linecap:round"
       id="path5774"
       inkscape:connector-curvature="0" />
    <path
       d="m 266.93435,1056.4698 a 0.377303,0.377303 0 0 0 -0.26823,-0.1545"
       style="fill:none;stroke:#000000;stroke-width:0.89999998;stroke-linecap:round"
       id="path5888"
       inkscape:connector-curvature="0" />
    <path
       d="m -324.46923,1321.5742 c -0.0165,0.7854 -0.0329,1.5707 -0.0463,2.3558 -0.0707,4.1315 -0.0584,8.2596 -0.0248,12.3322 0.0341,4.1401 0.0902,8.223 0.21977,12.241 0.1318,4.087 0.33964,8.1068 0.54749,12.1267"
       style="fill:none;stroke:#000000;stroke-width:0.89999998;stroke-linecap:round"
       id="path5920"
       inkscape:connector-curvature="0" />
    <path
       d="m -319.10657,1234.2738 c -0.0132,0.1294 -0.0264,0.2589 -0.0395,0.3883 -0.18078,1.7807 -0.35359,3.5639 -0.52312,5.3473 -0.21194,2.2295 -0.41873,4.4592 -0.61873,6.6892 -0.24003,2.6763 -0.47028,5.3529 -0.69102,8.0299 -0.25212,3.0573 -0.49183,6.1152 -0.7199,9.1647 -0.21517,2.8771 -0.41999,5.7467 -0.6137,8.5957 -0.22395,3.2937 -0.43305,6.5598 -0.63286,9.8093 -0.1707,2.7761 -0.33461,5.5401 -0.47064,8.1621 -0.0481,0.9281 -0.0928,1.8384 -0.13745,2.7487"
       style="fill:none;stroke:#000000;stroke-width:0.89999998;stroke-linecap:round"
       id="path5930"
       inkscape:connector-curvature="0" />
    <path
       d="m -303.19943,1131.1497 c -0.0414,0.1415 -0.0828,0.2829 -0.1237,0.4245 -0.7145,2.4742 -1.26479,4.9721 -1.805,7.457 -0.46603,2.1437 -0.92457,4.2779 -1.35439,6.4026 -0.3631,1.7948 -0.70571,3.5829 -1.0317,5.3206 -0.35055,1.8686 -0.68187,3.6791 -1.00887,5.5338 -0.23814,1.3508 -0.47399,2.725 -0.70983,4.0992"
       style="fill:none;stroke:#000000;stroke-width:0.89999998;stroke-linecap:round"
       id="path5932"
       inkscape:connector-curvature="0" />
    <path
       d="m 323.56628,1293.4012 c -0.0253,-0.5228 -0.0507,-1.0457 -0.0774,-1.5759 -0.10097,-2.003 -0.22184,-4.1112 -0.34674,-6.2299 -0.1427,-2.4204 -0.29065,-4.8546 -0.4472,-7.3112 -0.17674,-2.7737 -0.36445,-5.5762 -0.5617,-8.3903 -0.22031,-3.1432 -0.45254,-6.3011 -0.69807,-9.4646 -0.24188,-3.1164 -0.49666,-6.2384 -0.76405,-9.3589 -0.17996,-2.1002 -0.36561,-4.1996 -0.5574,-6.2989 -0.16347,-1.7893 -0.33139,-3.5785 -0.50246,-5.3674 -0.14144,-1.4792 -0.28504,-2.9583 -0.43451,-4.4355 -0.0175,-0.1729 -0.0351,-0.3457 -0.0526,-0.5186"
       style="fill:none;stroke:#000000;stroke-width:0.89999998;stroke-linecap:round"
       id="path5936"
       inkscape:connector-curvature="0" />
    <path
       d="m 261.89282,1053.5431 c 0,0 0,0 0,0 0,0 0,0 -10e-6,0 0,0 -10e-6,0 -2e-5,0 -9e-5,0 -2.1e-4,-1e-4 -3.4e-4,-2e-4 -5.6e-4,-3e-4 -10e-4,-7e-4 -0.002,0 -0.003,0 -0.005,0 -0.008,0 -0.005,0 -0.009,-0.01 -0.0143,-0.01 -0.0414,-0.026 -0.0837,-0.053 -0.1269,-0.081 -0.0305,-0.02 -0.0614,-0.04 -0.0923,-0.06"
       style="fill:none;stroke:#000000;stroke-width:0.89999998;stroke-linecap:round"
       id="path5938"
       inkscape:connector-curvature="0" />
    <path
       d="m -323.34564,1360.6276 c 0.18014,2.454 0.36027,4.908 0.64675,7.3455 0.33821,2.8776 0.82463,5.7322 1.42247,8.5568 0.54411,2.5707 1.18051,5.1166 1.9344,7.6235 1.0101,3.3587 2.23111,6.6475 3.67344,9.8264 1.26781,2.7942 2.70663,5.5035 4.31253,8.1039 1.4186,2.2972 2.96758,4.5094 4.63762,6.6242 1.47833,1.872 3.05151,3.6677 4.71204,5.3808 1.47007,1.5166 3.00859,2.9686 4.61099,4.3518 1.41798,1.224 2.88598,2.3942 4.40233,3.5068 1.75388,1.287 3.57245,2.497 5.4534,3.62 1.59931,0.955 3.24371,1.847 4.93181,2.667 1.43548,0.6972 2.90254,1.3424 4.39906,1.9286 1.82783,0.716 3.69958,1.3442 5.60989,1.8696 1.67558,0.4609 3.38081,0.8427 5.10882,1.1318 2.04992,0.3428 4.13187,0.5552 6.21622,0.6349 2.48492,0.095 4.97323,0 7.42436,-0.2624 1.91473,-0.2063 3.80676,-0.5166 5.66682,-0.9165 2.14739,-0.4617 4.25216,-1.043 6.30774,-1.7249 2.41181,-0.8001 4.75591,-1.7389 7.0298,-2.797 1.98133,-0.922 3.90935,-1.9346 5.7828,-3.0312 2.14077,-1.253 4.21029,-2.6157 6.20383,-4.0794 2.28074,-1.6747 4.46203,-3.4818 6.5363,-5.4079 2.37258,-2.2031 4.60513,-4.562 6.6935,-7.049 1.88612,-2.2461 3.65462,-4.5968 5.31445,-7.0287 1.85159,-2.7128 3.56793,-5.5267 5.17129,-8.4116 1.79139,-3.2232 3.44172,-6.5352 5.00218,-9.8974 1.74335,-3.7563 3.37452,-7.5754 4.89131,-11.4561 0.96992,-2.4815 1.89307,-4.9882 2.81622,-7.495"
       style="fill:none;stroke:#000000;stroke-width:0.89999998;stroke-linecap:round"
       id="path5940"
       inkscape:connector-curvature="0" />
    <path
       d="M 2.78338,974.50767 C 1.8556,974.50166 0.927799,974.49855 0,974.49845"
       style="fill:none;stroke:#000000;stroke-width:0.89999998;stroke-linecap:round"
       id="path6340"
       inkscape:connector-curvature="0" />
    <path
       d="m 37.331065,975.82093 c -1.640333,-0.10283 -3.280665,-0.20567 -4.921433,-0.30182 -1.751795,-0.10266 -3.504087,-0.1977 -5.256713,-0.28652 -1.863458,-0.0944 -3.727295,-0.18181 -5.591523,-0.26029 -1.974876,-0.0831 -3.95019,-0.15628 -5.925859,-0.21962 -2.0862,-0.0669 -4.172794,-0.12282 -6.259693,-0.16144 -2.197263,-0.0407 -4.394863,-0.0621 -6.592464,-0.0836"
       style="fill:none;stroke:#000000;stroke-width:0.89999998;stroke-linecap:round"
       id="path6342"
       inkscape:connector-curvature="0" />
    <path
       d="m 85.846229,980.37107 c -1.962002,-0.23572 -3.924004,-0.47144 -5.886992,-0.69887 -1.999079,-0.23161 -3.99918,-0.45463 -5.999969,-0.67142 -2.036785,-0.2207 -4.074284,-0.43494 -6.112544,-0.64185 -2.074186,-0.21055 -4.149161,-0.4135 -6.224822,-0.60961 -3.238686,-0.30599 -6.479043,-0.59532 -9.721495,-0.85904 -4.853318,-0.39472 -9.71133,-0.73204 -14.569342,-1.06935"
       style="fill:none;stroke:#000000;stroke-width:0.89999998;stroke-linecap:round"
       id="path6344"
       inkscape:connector-curvature="0" />
    <path
       d="m 148.39223,990.72314 c -1.32935,-0.29022 -2.65869,-0.58045 -3.98961,-0.86345 -1.31966,-0.28061 -2.64087,-0.55413 -3.96307,-0.82278 -1.31102,-0.26637 -2.62303,-0.52796 -3.93604,-0.78448 -1.30191,-0.25435 -2.6048,-0.50373 -3.90857,-0.74853 -1.29274,-0.24273 -2.58634,-0.48098 -3.88072,-0.71497 -1.28343,-0.23202 -2.56763,-0.45986 -3.85252,-0.6838 -1.27402,-0.22205 -2.54871,-0.44027 -3.82401,-0.6549 -1.26449,-0.21283 -2.52959,-0.42213 -3.79525,-0.62796 -3.40363,-0.5535 -6.81138,-1.08182 -10.22225,-1.58958 -3.48531,-0.51884 -6.97387,-1.01619 -10.466288,-1.48498 -3.566547,-0.47874 -7.13711,-0.92769 -10.707673,-1.37664"
       style="fill:none;stroke:#000000;stroke-width:0.89999998;stroke-linecap:round"
       id="path6346"
       inkscape:connector-curvature="0" />
    <path
       d="m 180.50439,999.55566 c -5.28738,-1.84957 -10.63308,-3.45124 -15.99504,-4.8978 -5.36197,-1.44657 -10.74007,-2.73936 -16.11712,-3.93472"
       style="fill:none;stroke:#000000;stroke-width:0.89999998;stroke-linecap:round"
       id="path6348"
       inkscape:connector-curvature="0" />
    <path
       d="m 218.45101,1018.4714 c -0.69537,-0.4433 -1.39074,-0.8867 -2.08925,-1.3251 -0.80065,-0.5025 -1.60544,-0.9987 -2.41323,-1.4899 -0.47254,-0.2873 -0.94611,-0.573 -1.42081,-0.8569 -1.04446,-0.6247 -2.09441,-1.2405 -3.1498,-1.8473 -1.71023,-0.9832 -3.43476,-1.9425 -5.17377,-2.8752 -1.38266,-0.7415 -2.77447,-1.4662 -4.17554,-2.1728 -1.62948,-0.8217 -3.27148,-1.6187 -4.92587,-2.3894 -1.55664,-0.7252 -3.12425,-1.4269 -4.70281,-2.1029 -1.06952,-0.4581 -2.14406,-0.9043 -3.22309,-1.3395 -1.09463,-0.4414 -2.19388,-0.8716 -3.29881,-1.2863 -1.12065,-0.4207 -2.24714,-0.82557 -3.37364,-1.23044"
       style="fill:none;stroke:#000000;stroke-width:0.89999998;stroke-linecap:round"
       id="path6350"
       inkscape:connector-curvature="0" />
    <path
       d="m 251.95822,1045.6394 c -0.30296,-0.2855 -0.60592,-0.571 -0.9102,-0.8547 -0.30144,-0.2811 -0.60418,-0.5605 -0.90841,-0.84 -0.30589,-0.281 -0.6133,-0.562 -0.92277,-0.8442 -0.30895,-0.2817 -0.61997,-0.5644 -0.93303,-0.8483 -0.65926,-0.5979 -1.32762,-1.2008 -2.00582,-1.8118 -0.60542,-0.5454 -1.21868,-1.0972 -1.83936,-1.6568 -1.31083,-1.182 -2.65473,-2.399 -4.01475,-3.6102 -0.59929,-0.5337 -1.2017,-1.0662 -1.80796,-1.5961 -0.77861,-0.6806 -1.56356,-1.3567 -2.35521,-2.0252 -0.91715,-0.7745 -1.84329,-1.5387 -2.77834,-2.2919 -1.04204,-0.8393 -2.09516,-1.6649 -3.15854,-2.4773 -1.17199,-0.8953 -2.35645,-1.7746 -3.55141,-2.6398 -1.30486,-0.9448 -2.62225,-1.8727 -3.9548,-2.7787 -1.44367,-0.9815 -2.90514,-1.9373 -4.36661,-2.893"
       style="fill:none;stroke:#000000;stroke-width:0.89999998;stroke-linecap:round"
       id="path6352"
       inkscape:connector-curvature="0" />
    <path
       d="m 254.10509,1047.4349 c -0.70572,-0.5996 -1.42432,-1.2033 -2.14687,-1.7955"
       style="fill:none;stroke:#000000;stroke-width:0.89999998;stroke-linecap:round"
       id="path6354"
       inkscape:connector-curvature="0" />
    <path
       d="m 254.46373,1047.7397 c -0.11935,-0.1018 -0.2389,-0.2034 -0.35864,-0.3048"
       style="fill:none;stroke:#000000;stroke-width:0.89999998;stroke-linecap:round"
       id="path6356"
       inkscape:connector-curvature="0" />
    <path
       d="m -254.1051,1047.4349 c -0.11975,0.1014 -0.23931,0.2031 -0.35867,0.3048"
       style="fill:none;stroke:#000000;stroke-width:0.89999998;stroke-linecap:round"
       id="path6368"
       inkscape:connector-curvature="0" />
    <path
       d="m -251.95822,1045.6394 c -0.72255,0.5922 -1.44127,1.1961 -2.14688,1.7955"
       style="fill:none;stroke:#000000;stroke-width:0.89999998;stroke-linecap:round"
       id="path6370"
       inkscape:connector-curvature="0" />
    <path
       d="m -218.4462,1018.4683 c -0.8202,0.5334 -1.64041,1.0669 -2.45582,1.6074 -0.78353,0.5194 -1.56262,1.0453 -2.33747,1.5773 -0.74315,0.5103 -1.48239,1.026 -2.21747,1.5476 -0.70354,0.4991 -1.40326,1.0035 -2.0992,1.513 -0.66455,0.4865 -1.32564,0.9776 -1.98296,1.4736 -0.62615,0.4726 -1.24887,0.9495 -1.86799,1.4311 -0.58819,0.4574 -1.17313,0.919 -1.75471,1.3847 -0.55091,0.4412 -1.09881,0.886 -1.6435,1.3348 -0.5143,0.4237 -1.02574,0.8509 -1.53447,1.2812 -0.79755,0.6745 -1.58843,1.3565 -2.37284,2.043 -0.60633,0.5307 -1.20879,1.064 -1.80811,1.5982 -1.35682,1.2094 -2.69753,2.4232 -4.00482,3.6017 -0.61303,0.5527 -1.21871,1.0976 -1.81675,1.6365 -0.66873,0.6027 -1.32792,1.198 -1.97817,1.787 -0.61931,0.561 -1.23051,1.1162 -1.83464,1.6735 -0.60578,0.5588 -1.20444,1.1197 -1.8031,1.6805"
       style="fill:none;stroke:#000000;stroke-width:0.89999998;stroke-linecap:round"
       id="path6372"
       inkscape:connector-curvature="0" />
    <path
       d="m -180.49829,999.55345 c -0.67974,0.24248 -1.35947,0.48495 -2.03718,0.73305 -0.67157,0.2458 -1.34114,0.4971 -2.00909,0.7527 -0.66183,0.2532 -1.32206,0.5105 -1.98053,0.7724 -0.65235,0.2594 -1.30298,0.5231 -1.95184,0.7912 -0.64278,0.2655 -1.28384,0.5352 -1.92313,0.8091 -1.57848,0.6762 -3.14617,1.3779 -4.70285,2.103 -1.65467,0.7707 -3.2969,1.568 -4.92662,2.3898 -1.40084,0.7064 -2.79243,1.4311 -4.17487,2.1725 -1.73879,0.9325 -3.4631,1.8917 -5.17311,2.8748 -1.05592,0.607 -2.1064,1.2232 -3.15138,1.8482 -0.47331,0.283 -0.94549,0.5679 -1.41666,0.8544 -0.80746,0.491 -1.61192,0.9869 -2.41225,1.4892 -0.69823,0.4382 -1.39331,0.8814 -2.0884,1.3245"
       style="fill:none;stroke:#000000;stroke-width:0.89999998;stroke-linecap:round"
       id="path6374"
       inkscape:connector-curvature="0" />
    <path
       d="m -148.38883,990.7224 c -5.37658,1.19521 -10.75422,2.48781 -16.11573,3.93414 -5.3615,1.44633 -10.70677,3.04771 -15.99373,4.89691"
       style="fill:none;stroke:#000000;stroke-width:0.89999998;stroke-linecap:round"
       id="path6376"
       inkscape:connector-curvature="0" />
    <path
       d="m -85.846416,980.37109 c -1.794729,0.2224 -3.589458,0.4448 -5.383236,0.67454 -1.775301,0.22737 -3.549672,0.46193 -5.323286,0.70195 -1.755108,0.23751 -3.509472,0.48037 -5.262992,0.72915 -1.73498,0.24614 -3.46912,0.49807 -5.20241,0.75569 -1.7147,0.25485 -3.42857,0.51528 -5.14151,0.7816 -1.69431,0.26344 -3.3877,0.53264 -5.08012,0.80785 -2.54272,0.41349 -5.08323,0.84054 -7.62099,1.28313 -2.5808,0.4501 -5.15875,0.91628 -7.73366,1.39884 -2.61855,0.49074 -5.23395,0.99842 -7.84373,1.53283 -2.65403,0.54348 -5.30226,1.1146 -7.95048,1.68573"
       style="fill:none;stroke:#000000;stroke-width:0.89999998;stroke-linecap:round"
       id="path6378"
       inkscape:connector-curvature="0" />
    <path
       d="m -37.331065,975.82093 c -1.797807,0.11934 -3.595615,0.23868 -5.392877,0.36556 -1.619356,0.11431 -3.23827,0.23474 -4.856825,0.35959 -1.440113,0.11109 -2.879943,0.22567 -4.319438,0.34419 -1.260519,0.10378 -2.520781,0.21057 -3.78078,0.32027 -1.08051,0.0941 -2.160827,0.1903 -3.240948,0.28861 -0.900158,0.0819 -1.800179,0.16532 -2.70006,0.25018 -2.759541,0.26022 -5.517753,0.53426 -8.274713,0.82012 -2.693097,0.27924 -5.385001,0.56976 -8.075085,0.8758 -2.626031,0.29876 -5.250328,0.6123 -7.874625,0.92584"
       style="fill:none;stroke:#000000;stroke-width:0.89999998;stroke-linecap:round"
       id="path6380"
       inkscape:connector-curvature="0" />
    <path
       d="m -2.785941,974.50769 c -1.331763,0.0108 -2.663526,0.0216 -3.995195,0.0396 -1.291959,0.0175 -2.58383,0.0418 -3.875587,0.0707 -1.252,0.028 -2.503893,0.0603 -3.755648,0.0972 -1.211958,0.0357 -2.423788,0.0757 -3.63547,0.11947 -1.17187,0.0424 -2.343602,0.0883 -3.515183,0.13771 -1.131741,0.0477 -2.263341,0.0985 -3.394795,0.1523 -1.091574,0.0519 -2.183011,0.10643 -3.274303,0.16357 -1.05137,0.0551 -2.102604,0.11251 -3.15371,0.17207 -1.011141,0.0573 -2.022162,0.11654 -3.033016,0.17826 -0.970842,0.0593 -1.94153,0.12081 -2.912217,0.18236"
       style="fill:none;stroke:#000000;stroke-width:0.89999998;stroke-linecap:round"
       id="path6382"
       inkscape:connector-curvature="0" />
    <path
       d="m 0,974.49845 c -0.928654,10e-5 -1.857307,0.003 -2.785941,0.009"
       style="fill:none;stroke:#000000;stroke-width:0.89999998;stroke-linecap:round"
       id="path6384"
       inkscape:connector-curvature="0" />
    <path
       d="m -162.94479,1311.4961 c 0.31645,-0.4349 0.63291,-0.8698 0.95571,-1.3015 0.44053,-0.5891 0.89289,-1.1723 1.35505,-1.7501 0.58249,-0.7283 1.18054,-1.4482 1.79621,-2.1577 0.73153,-0.8431 1.48793,-1.6716 2.27053,-2.4829 0.88438,-0.9168 1.80222,-1.8115 2.75327,-2.6805 1.05302,-0.9621 2.14675,-1.8927 3.27947,-2.7889 1.25977,-0.9966 2.56777,-1.9506 3.91691,-2.8623 1.88331,-1.2725 3.84676,-2.4626 5.87715,-3.5675 3.26799,-1.7784 6.70937,-3.3363 10.25017,-4.7053 2.59868,-1.0047 5.25092,-1.9076 7.94052,-2.7243 4.8013,-1.458 9.72169,-2.6413 14.68968,-3.6486 6.57309,-1.3326 13.229508,-2.3569 19.919485,-3.1745 4.911136,-0.6002 9.840355,-1.089 14.778034,-1.5066 4.874314,-0.4123 9.756872,-0.7552 14.644049,-1.0428 4.852815,-0.2856 9.710183,-0.5165 14.570009,-0.7014 4.852047,-0.1846 9.706544,-0.3234 14.562082,-0.4277 4.873578,-0.1047 9.748204,-0.1747 14.623102,-0.2145 4.920936,-0.04 9.842147,-0.05 14.763359,-0.059"
       style="fill:none;stroke:#000000;stroke-width:0.89999998;stroke-linecap:round"
       id="path6812"
       inkscape:connector-curvature="0" />
    <path
       d="m 0,1273.7 c 2.692709,0 5.385418,0.01 8.078091,0.016 2.675136,0.011 5.350236,0.029 8.025225,0.055 2.662025,0.026 5.32394,0.059 7.985631,0.1028 2.653378,0.043 5.306532,0.096 7.959301,0.16 2.648922,0.064 5.297459,0.1388 7.945389,0.2266 2.648179,0.088 5.29575,0.1882 7.942423,0.3031 2.651095,0.115 5.301288,0.2445 7.950247,0.3896 2.657693,0.1456 5.314144,0.307 7.968852,0.4863 2.668018,0.1803 5.334277,0.3786 7.9982,0.5969 2.682082,0.2198 5.361797,0.4599 8.037807,0.7262 2.698957,0.2686 5.394145,0.5639 8.083403,0.8934 2.913258,0.3569 5.819556,0.7539 8.715616,1.1977 2.936724,0.45 5.862925,0.948 8.773995,1.5023 2.96009,0.5637 5.90454,1.1855 8.82258,1.8855 2.96004,0.7101 5.8929,1.5007 8.78213,2.3915 2.51829,0.7764 5.00342,1.629 7.43768,2.5725 1.37078,0.5314 2.72543,1.0915 4.06242,1.68 1.28798,0.5669 2.55958,1.1601 3.80862,1.7849 1.2312,0.6158 2.44048,1.2624 3.62601,1.9379 1.2057,0.6871 2.38683,1.4041 3.5395,2.1517 1.19109,0.7724 2.35179,1.5774 3.47837,2.4149 1.64695,1.2243 3.22098,2.5179 4.71257,3.8751 1.27817,1.1631 2.4958,2.3729 3.65349,3.6202 0.93856,1.0112 1.83772,2.0471 2.70274,3.1017 0.62441,0.7613 1.23104,1.5324 1.81713,2.3138 0.35069,0.4676 0.69403,0.9389 1.03737,1.4102"
       style="fill:none;stroke:#000000;stroke-width:0.89999998;stroke-linecap:round"
       id="path6846"
       inkscape:connector-curvature="0" />
    <path
       d="m 324.20874,1311.496 c 0.0201,0 0.0355,0 0.0458,0"
       style="fill:none;stroke:#000000;stroke-width:0.89999998;stroke-linecap:round"
       id="path6956"
       inkscape:connector-curvature="0" />
    <path
       d="m 324.25706,1311.5826 -0.001,-0.043 -10e-4,-0.043 z"
       style="fill:none;stroke:#000000;stroke-width:0.89999998;stroke-linecap:round"
       id="path6958"
       inkscape:connector-curvature="0" />
    <path
       d="m 162.94479,1311.4961 c 0.007,0.01 0.0143,0.02 0.0215,0.03 0.007,0.01 0.0143,0.02 0.0215,0.03 0.0143,0.02 0.0286,0.04 0.0429,0.06"
       style="fill:none;stroke:#000000;stroke-width:0.89999998;stroke-linecap:round"
       id="path6972"
       inkscape:connector-curvature="0" />
    <path
       d="m -185.08338,1360.6299 c 0.81384,-2.2946 1.62767,-4.5891 2.45083,-6.8788 0.78069,-2.1715 1.56976,-4.3386 2.37193,-6.5001 0.75849,-2.0437 1.52868,-4.0824 2.31824,-6.1132 0.74401,-1.9137 1.50522,-3.8203 2.2894,-5.7174 0.46081,-1.1148 0.92956,-2.2263 1.409,-3.3335 0.46964,-1.0846 0.94955,-2.1651 1.44218,-3.2403 0.48232,-1.0527 0.97683,-2.1005 1.48585,-3.1421 0.49821,-1.0195 1.01031,-2.0331 1.53812,-3.0398 0.5164,-0.9849 1.04782,-1.9632 1.59623,-2.9334 0.53604,-0.9484 1.0883,-1.8891 1.65638,-2.822 0.55484,-0.9111 1.12478,-1.8148 1.71712,-2.7062 0.57823,-0.8702 1.17782,-1.7287 1.77741,-2.5871"
       style="fill:none;stroke:#000000;stroke-width:0.89999998;stroke-linecap:round"
       id="path6976"
       inkscape:connector-curvature="0" />
    <path
       d="m -266.93435,1056.4698 c -0.4843,0.6776 -0.96859,1.3552 -1.44639,2.0373 -0.47404,0.6768 -0.94168,1.3579 -1.40491,2.042 -0.45955,0.6786 -0.91476,1.3602 -1.36538,2.0446 -0.447,0.679 -0.88947,1.3609 -1.32772,2.0455 -0.4347,0.679 -0.86523,1.3606 -1.29172,2.0447 -0.42301,0.6786 -0.84203,1.3595 -1.25723,2.0428 -0.41178,0.6776 -0.81981,1.3574 -1.22422,2.0394 -0.40105,0.6763 -0.79854,1.3546 -1.19264,2.0349 -0.39079,0.6746 -0.77823,1.3511 -1.16248,2.0293 -0.381,0.6725 -0.75886,1.3468 -1.13373,2.0227 -0.37168,0.6702 -0.74042,1.3419 -1.10638,2.0152 -0.36281,0.6675 -0.72289,1.3364 -1.08039,2.0067 -0.35441,0.6645 -0.70628,1.3303 -1.05572,1.9974 -0.34641,0.6613 -0.69043,1.3237 -1.03217,1.9874 -0.33875,0.6578 -0.67527,1.3168 -1.00965,1.9768 -0.33143,0.6542 -0.66077,1.3094 -0.98812,1.9656 -0.32443,0.6504 -0.6469,1.3017 -0.96753,1.954 -0.31776,0.6463 -0.63372,1.2936 -0.94805,1.9416 -0.31151,0.6422 -0.62143,1.2851 -0.92997,1.9287 -0.30574,0.6378 -0.61012,1.2762 -0.91329,1.9151 -0.30042,0.6332 -0.59965,1.2669 -0.89809,1.9009 -0.29571,0.6282 -0.59063,1.2568 -0.88428,1.886 -0.29094,0.6233 -0.58064,1.2472 -0.87034,1.8712"
       style="fill:none;stroke:#000000;stroke-width:0.89999998;stroke-linecap:round"
       id="path7000"
       inkscape:connector-curvature="0" />
    <path
       d="m -309.17998,1160.3946 c -1.18531,7.1446 -2.37062,14.2891 -3.44798,21.4666 -1.28372,8.5524 -2.41418,17.1516 -3.48551,25.7647 -1.07132,8.6131 -2.0835,17.24 -2.9172,25.8909 -0.3524,3.6568 -0.67291,7.3178 -0.99342,10.9788"
       style="fill:none;stroke:#000000;stroke-width:0.89999998;stroke-linecap:round"
       id="path7004"
       inkscape:connector-curvature="0" />
    <path
       d="m -292.42475,1102.1996 c -0.22412,0.4853 -0.44825,0.9707 -0.67151,1.4573 -0.22101,0.4817 -0.44118,0.9647 -0.66041,1.4485 -0.21714,0.4792 -0.43336,0.9593 -0.64837,1.4403 -0.21305,0.4766 -0.42491,0.9542 -0.63532,1.4326 -0.2086,0.4744 -0.41577,0.9496 -0.62126,1.4256 -0.20382,0.4722 -0.40598,0.9451 -0.60628,1.4189 -0.19871,0.4701 -0.39559,0.9409 -0.59039,1.4125 -0.19334,0.4681 -0.38463,0.9368 -0.57367,1.4063 -0.18766,0.4661 -0.3731,0.9329 -0.55611,1.4003 -0.18175,0.4642 -0.36111,0.929 -0.53781,1.3945 -0.38167,1.0053 -0.75097,2.0135 -1.1071,3.0235 -0.34958,0.9914 -0.68646,1.9846 -1.01085,2.978 -0.31874,0.9761 -0.62541,1.9526 -0.92128,2.9284 -0.29096,0.9596 -0.57147,1.9186 -0.83896,2.8746 -0.26328,0.9411 -0.51394,1.8794 -0.7646,2.8176"
       style="fill:none;stroke:#000000;stroke-width:0.89999998;stroke-linecap:round"
       id="path7006"
       inkscape:connector-curvature="0" />
    <path
       d="m 266.93435,1056.4698 c -0.0157,-0.017 -0.0315,-0.033 -0.0489,-0.049 -0.0174,-0.015 -0.0366,-0.029 -0.0578,-0.043 -0.0425,-0.028 -0.0932,-0.057 -0.15511,-0.088 -0.12359,-0.063 -0.29159,-0.1402 -0.52764,-0.2613 -0.23446,-0.1202 -0.53606,-0.2841 -0.89935,-0.4868 -0.37094,-0.207 -0.80619,-0.4545 -1.29747,-0.7369 -0.25913,-0.1489 -0.53384,-0.3076 -0.82631,-0.4801 -0.2558,-0.1509 -0.52518,-0.3123 -0.81198,-0.4905 -0.61404,-0.3816 -1.30793,-0.84 -2.09672,-1.4112 -0.39629,-0.287 -0.81653,-0.6025 -1.26239,-0.9509 -0.44228,-0.3457 -0.90977,-0.7239 -1.39518,-1.1243 -0.48549,-0.4004 -0.9889,-0.823 -1.50453,-1.2591 -0.24799,-0.2098 -0.4988,-0.4227 -0.75255,-0.6384 -0.27595,-0.2345 -0.55538,-0.4724 -0.83482,-0.7102"
       style="fill:none;stroke:#000000;stroke-width:0.89999998;stroke-linecap:round"
       id="path7008"
       inkscape:connector-curvature="0" />
    <path
       d="m 322.11029,1269.5828 c -0.0751,-1.2003 -0.15017,-2.4006 -0.23022,-3.6006 -0.49059,-7.355 -1.16749,-14.6997 -1.8444,-22.0443"
       style="fill:none;stroke:#000000;stroke-width:0.89999998;stroke-linecap:round"
       id="path7014"
       inkscape:connector-curvature="0" />
    <path
       d="m 185.08371,1360.6299 c 0.02,0.057 0.04,0.1143 0.06,0.1715"
       style="fill:none;stroke:#000000;stroke-width:0.89999998;stroke-linecap:round"
       id="path7044"
       inkscape:connector-curvature="0" />
    <path
       d="m 202.68517,1399.5136 c -0.21231,-0.2968 -0.42462,-0.5936 -0.62645,-0.8953 -0.98579,-1.4733 -1.72154,-3.062 -2.45729,-4.6508"
       style="fill:none;stroke:#000000;stroke-width:0.89999998;stroke-linecap:round"
       id="path7046"
       inkscape:connector-curvature="0" />
    <path
       d="m 324.37837,1321.9032 -0.12131,-10.3206"
       style="fill:none;stroke:#000000;stroke-width:0.89999998;stroke-linecap:round"
       id="path7134"
       inkscape:connector-curvature="0" />
    <path
       d="m -321.56646,1262.2079 -1.4111,20.6479"
       style="fill:none;stroke:#000000;stroke-width:0.89999998;stroke-linecap:round"
       id="path7138"
       inkscape:connector-curvature="0" />
    <path
       d="m 324.25402,1311.4961 -0.87165,-21.5844"
       style="fill:none;stroke:#000000;stroke-width:0.89999998;stroke-linecap:round"
       id="path7142"
       inkscape:connector-curvature="0" />
    <path
       d="m -266.93435,1056.4698 0.0211,-0.027"
       style="fill:none;stroke:#000000;stroke-width:0.89999998;stroke-linecap:round"
       id="path7144"
       inkscape:connector-curvature="0" />
    <path
       d="m 185.14374,1360.8014 1.35714,3.686"
       style="fill:none;stroke:#000000;stroke-width:0.89999998;stroke-linecap:round"
       id="path7150"
       inkscape:connector-curvature="0" />
    <path
       d="m -320.02409,1244.4956 -1.14535,12.658"
       style="fill:none;stroke:#414141;stroke-width:0.89999998;stroke-linecap:round"
       id="path7162"
       inkscape:connector-curvature="0" />
    <path
       d="m -266.91328,1056.4432 a 0.377953,0.377953 0 0 0 -0.0212,0.027"
       style="fill:none;stroke:#000000;stroke-width:0.89999998;stroke-linecap:round"
       id="path7180"
       inkscape:connector-curvature="0" />
    <path
       d="m 266.92437,1056.4566 a 0.377953,0.377953 0 0 0 -0.0111,-0.013"
       style="fill:none;stroke:#000000;stroke-width:0.89999998;stroke-linecap:round"
       id="path7182"
       inkscape:connector-curvature="0" />
    <path
       d="m 266.93435,1056.4698 a 0.377303,0.377303 0 0 0 -0.26823,-0.1545"
       style="fill:none;stroke:#000000;stroke-width:0.89999998;stroke-linecap:round"
       id="path7296"
       inkscape:connector-curvature="0" />
  </g>
  <g
     inkscape:groupmode="layer"
     id="layer1"
     inkscape:label="Keep"
     style="display:inline"
     transform="translate(-3.7077219,0.04993925)">
    <path
       style="fill:none;stroke:#ff0000;stroke-width:0.99401575;stroke-linecap:butt;stroke-linejoin:miter;stroke-miterlimit:4;stroke-dasharray:none;stroke-opacity:1"
       d="m 325.01664,0.44714593 36.8982,1.32249677 47.95262,4.5501976 74.05021,13.4535667 57.01698,24.647246 47.92116,37.998881 11.77943,19.379296 13.4154,26.35108 6.76556,15.63392 4.805,16.79399 4.94388,25.62413 9.20899,65.6822 2.79564,31.99699 1.04836,23.15803 1.21301,12.31476 0.89917,28.50017 -0.19019,25.65395 -1.57254,23.33483 -2.27145,10.7835 -5.41653,13.78877 -5.94072,10.42995 -6.81435,7.42471 -8.64898,9.01573 -8.99844,5.48015 -6.72698,2.91685 -7.07645,2.29812 -7.68798,1.14907 -8.29953,-0.53034 -8.47426,-1.76778 -8.91107,-3.27041 -12.05616,-6.62922 -10.13416,-9.01572 -12.23088,-15.9101 -6.98907,-13.78877 -6.11545,-14.31909 -5.41654,-14.84943 -4.01871,-10.25318 -6.81435,-16.61722 -6.98908,-12.72808 -8.56162,-10.9603 -8.38689,-7.07115 -9.52262,-5.74532 -8.8237,-4.06591 -12.14353,-3.80075 -8.56162,-1.85617 -15.63805,-2.91686 -19.1326,-1.94456 -10.39625,-0.79551 -11.18252,-0.70711 -12.58035,-0.44196 c -14.08703,-0.56447 -28.18856,-0.40155 -42.28391,-0.44195 0,0 -16.68642,0.17678 -17.03587,0.17678 -0.34946,0 -16.24961,0.17677 -16.24961,0.17677 l -11.09516,0.53035 c 0,0 -9.69734,0.70711 -9.7847,0.70711 -0.0874,0 -9.87207,0.61872 -9.87207,0.61872 l -13.45398,1.06068 -16.77378,2.29813 -11.26989,2.12134 -9.7847,2.74008 -8.91108,2.65168 -8.82371,3.97752 -6.55225,4.06592 -5.67863,4.06591 -3.84399,3.53558 -2.97036,3.27041 -4.7466,5.86914 -5.91174,9.59902 -4.01872,7.95506 -3.75663,8.92733 -3.75663,8.66217 -2.27145,7.60149 c 0,0 -2.27144,7.24794 -2.44617,7.60149 -0.17473,0.35357 -3.23245,8.22023 -3.23245,8.22023 l -3.844,9.28089 -3.14508,7.60149 -2.88299,6.54082 -5.85335,8.66217 -6.20281,7.68988 -5.15445,5.30338 -6.29017,4.9498 -5.678619,4.15431 -7.163803,4.2427 -7.60062,2.74007 -13.279246,2.4749 -9.0858,-0.44194 -9.522617,-2.29813 -5.416535,-2.20974 -8.823709,-4.41948 -9.173163,-7.42471 -7.862711,-8.22021 -3.931356,-6.01049 -4.80499,-8.30861 -3.4945383,-10.60674 -2.0093595,-8.48539 -1.4851788,-7.95504 -1.2230884,-12.99325 -0.3494539,-12.81647 0.174727,-12.5513 v -9.19251 -6.7176 l 0.5241807,-11.04868 0.4368173,-11.31386 0.7862711,-13.96553 1.2230884,-15.9985 1.2230885,-14.49587 1.037124,-12.07632 1.4090529,-12.58434 1.485179,-12.19775 1.572542,-10.96029 1.397816,-9.63445 1.135724,-9.36929 2.184087,-13.08163 1.572542,-10.34157 2.009359,-9.63446 2.446178,-12.28613 3.05772,-11.22546 4.717627,-12.19775 6.639623,-14.67265 3.319811,-7.15954 8.037438,-14.937828 5.591261,-9.546062 5.012163,-8.004056 9.577535,-8.613163 10.570979,-7.513105 12.667702,-11.402242 10.046792,-6.452431 17.64742,-11.313852 20.79251,-9.634452 19.04524,-6.717599 16.80192,-4.074389 20.93908,-4.057442 20.87987,-3.7123575 15.46333,-1.6793999 16.77379,-2.2097367 15.55069,-1.5026209 14.67707,-1.2374526 19.21995,-1.0606735 14.41498,-0.70711575 8.74945,-0.0573562"
       id="path7327"
       inkscape:connector-curvature="0"
       sodipodi:nodetypes="cccccccccccccccccccccccccccccccccccccccccccccccccccsccsccccccccccccccccccccccccccccccccccccccccccccccccccccccccccccccccccccccccccccccccccccc" />
  </g>
</svg>
