<?xml version="1.0" encoding="UTF-8" standalone="no"?>
<!-- Created with Inkscape (http://www.inkscape.org/) -->

<svg
   xmlns:dc="http://purl.org/dc/elements/1.1/"
   xmlns:cc="http://creativecommons.org/ns#"
   xmlns:rdf="http://www.w3.org/1999/02/22-rdf-syntax-ns#"
   xmlns:svg="http://www.w3.org/2000/svg"
   xmlns="http://www.w3.org/2000/svg"
   xmlns:sodipodi="http://sodipodi.sourceforge.net/DTD/sodipodi-0.dtd"
   xmlns:inkscape="http://www.inkscape.org/namespaces/inkscape"
   width="900.78595mm"
   height="600.91827mm"
   viewBox="0 0 900.78595 600.91828"
   version="1.1"
   id="svg8"
   inkscape:version="0.92.4 (5da689c313, 2019-01-14)"
   sodipodi:docname="Lewin_Grid.svg">
  <defs
     id="defs2" />
  <sodipodi:namedview
     id="base"
     pagecolor="#ffffff"
     bordercolor="#666666"
     borderopacity="1.0"
     inkscape:pageopacity="0.0"
     inkscape:pageshadow="2"
     inkscape:zoom="0.12374369"
     inkscape:cx="249.25416"
     inkscape:cy="1540.7336"
     inkscape:document-units="mm"
     inkscape:current-layer="layer1"
     showgrid="false"
     inkscape:window-width="1920"
     inkscape:window-height="1017"
     inkscape:window-x="-8"
     inkscape:window-y="-8"
     inkscape:window-maximized="1" />
  <metadata
     id="metadata5">
    <rdf:RDF>
      <cc:Work
         rdf:about="">
        <dc:format>image/svg+xml</dc:format>
        <dc:type
           rdf:resource="http://purl.org/dc/dcmitype/StillImage" />
        <dc:title />
      </cc:Work>
    </rdf:RDF>
  </metadata>
  <g
     inkscape:label="Layer 1"
     inkscape:groupmode="layer"
     id="layer1"
     transform="translate(150.262,453.262)">
    <rect
       id="rect10"
       width="600"
       height="900"
       x="-147"
       y="-150"
       style="fill:none;stroke:#f20000;stroke-width:0.52399999;stroke-miterlimit:4;stroke-dasharray:none;stroke-opacity:1"
       transform="rotate(-90)" />
    <path
       d="M -150,147.52397 H 750.52397 M -150,137.52272 H 750.52397 M -150,127.52147 H 750.52397 M -150,117.52022 H 750.52397 M -150,107.51897 H 750.52397 M -150,97.517722 H 750.52397 M -150,87.516473 H 750.52397 M -150,77.515223 H 750.52397 M -150,67.513973 H 750.52397 M -150,57.512724 H 750.52397 M -150,47.51147 H 750.52397 M -150,37.51022 H 750.52397 M -150,27.50898 H 750.52397 M -150,17.50773 H 750.52397 M -150,7.50648 H 750.52397 M -150,-2.49477 H 750.52397 M -150,-12.49602 H 750.52397 M -150,-22.49727 H 750.52397 M -150,-32.49852 H 750.52397 M -150,-42.49977 H 750.52397 M -150,-52.50102 H 750.52397 M -150,-62.50227 H 750.52397 M -150,-72.50352 H 750.52397 M -150,-82.50477 H 750.52397 M -150,-92.50602 H 750.52397 M -150,-102.50727 H 750.52397 M -150,-112.50852 H 750.52397 M -150,-122.50977 H 750.52397 M -150,-132.51102 H 750.52397 M -150,-142.51227 H 750.52397 M -150,-152.51352 H 750.52397 M -150,-162.51477 H 750.52397 M -150,-172.51602 H 750.52397 M -150,-182.51727 H 750.52397 M -150,-192.51852 H 750.52397 M -150,-202.51977 H 750.52397 M -150,-212.52101 H 750.52397 M -150,-222.52226 H 750.52397 M -150,-232.52351 H 750.52397 M -150,-242.52476 H 750.52397 M -150,-252.52601 H 750.52397 M -150,-262.52726 H 750.52397 M -150,-272.52851 H 750.52397 M -150,-282.52976 H 750.52397 M -150,-292.53101 H 750.52397 M -150,-302.53226 H 750.52397 M -150,-312.53351 H 750.52397 M -150,-322.53476 H 750.52397 M -150,-332.53601 H 750.52397 M -150,-342.53726 H 750.52397 M -150,-352.53851 H 750.52397 M -150,-362.53976 H 750.52397 M -150,-372.54101 H 750.52397 M -150,-382.54226 H 750.52397 M -150,-392.54351 H 750.52397 M -150,-402.54476 H 750.52397 M -150,-412.54601 H 750.52397 M -150,-422.54726 H 750.52397 M -150,-432.54851 H 750.52397 M -150,-442.54975 H 750.52397 M -150,-452.551 H 750.52397 M -150,147.52397 V -453 m 10.00125,600.52397 V -453 m 10.00125,600.52397 V -453 m 10.00125,600.52397 V -453 m 10.00124,600.52397 V -453 m 10.00125,600.52397 V -453 m 10.00125,600.52397 V -453 m 10.00125,600.52397 V -453 m 10.00125,600.52397 V -453 m 10.00125,600.52397 V -453 M -49.9875,147.52397 V -453 m 10.00125,600.52397 V -453 m 10.00124,600.52397 V -453 m 10.00125,600.52397 V -453 M -9.98251,147.52397 V -453 M 0.01874,147.52397 V -453 M 10.01999,147.52397 V -453 M 20.02124,147.52397 V -453 M 30.02249,147.52397 V -453 M 40.02374,147.52397 V -453 M 50.02499,147.52397 V -453 M 60.02624,147.52397 V -453 M 70.02749,147.52397 V -453 M 80.02874,147.52397 V -453 M 90.02999,147.52397 V -453 m 10.00125,600.52397 V -453 m 10.00125,600.52397 V -453 m 10.00125,600.52397 V -453 m 10.00125,600.52397 V -453 m 10.00125,600.52397 V -453 m 10.00125,600.52397 V -453 m 10.00125,600.52397 V -453 m 10.00125,600.52397 V -453 m 10.00125,600.52397 V -453 m 10.00125,600.52397 V -453 m 10.00125,600.52397 V -453 m 10.00124,600.52397 V -453 m 10.00125,600.52397 V -453 m 10.00125,600.52397 V -453 m 10.00125,600.52397 V -453 m 10.00125,600.52397 V -453 m 10.00125,600.52397 V -453 m 10.00125,600.52397 V -453 m 10.00125,600.52397 V -453 m 10.00125,600.52397 V -453 m 10.00125,600.52397 V -453 m 10.00125,600.52397 V -453 m 10.00125,600.52397 V -453 m 10.00125,600.52397 V -453 m 10.00125,600.52397 V -453 m 10.00125,600.52397 V -453 m 10.00125,600.52397 V -453 m 10.00125,600.52397 V -453 m 10.00125,600.52397 V -453 m 10.00125,600.52397 V -453 m 10.00125,600.52397 V -453 m 10.00125,600.52397 V -453 m 10.00125,600.52397 V -453 m 10.00125,600.52397 V -453 m 10.00124,600.52397 V -453 m 10.00125,600.52397 V -453 m 10.00125,600.52397 V -453 m 10.00125,600.52397 V -453 m 10.00125,600.52397 V -453 m 10.00125,600.52397 V -453 m 10.00125,600.52397 V -453 m 10.00125,600.52397 V -453 m 10.00125,600.52397 V -453 m 10.00125,600.52397 V -453 m 10.00125,600.52397 V -453 m 10.00125,600.52397 V -453 m 10.00125,600.52397 V -453 m 10.00125,600.52397 V -453 m 10.00125,600.52397 V -453 m 10.00125,600.52397 V -453 m 10.00125,600.52397 V -453 m 10.00125,600.52397 V -453 m 10.00125,600.52397 V -453 m 10.00125,600.52397 V -453 m 10.00125,600.52397 V -453 m 10.00125,600.52397 V -453 m 10.00125,600.52397 V -453 m 10.00124,600.52397 V -453 m 10.00125,600.52397 V -453 m 10.00125,600.52397 V -453 m 10.00125,600.52397 V -453 m 10.00125,600.52397 V -453 m 10.00125,600.52397 V -453 m 10.00125,600.52397 V -453 m 10.00125,600.52397 V -453 m 10.00125,600.52397 V -453"
       style="fill:none;stroke:#ff0000;stroke-width:0.26458299px;stroke-opacity:1"
       id="path843"
       inkscape:connector-curvature="0" />
  </g>
</svg>
